<svg xmlns="http://www.w3.org/2000/svg" width="760" height="450" font-family="monospace" font-size="12">
<rect width="760" height="450" fill="white"/>
<text x="20" y="24" font-size="15" font-weight="bold">Per-operation mean latency — cva6 (lower is better)</text>
<text x="10" y="64" font-size="11">Register Read Latency (raw DMI read)</text>
<rect x="260" y="50" width="46.7" height="18" fill="#3b6fd6"/>
<text x="312.7" y="64">134.87 ms (PyDebug/UVM)</text>
<rect x="260" y="70" width="117.1" height="18" fill="#d67a3b"/>
<text x="383.1" y="84">338.50 ms (OpenOCD+RBB)</text>
<text x="10" y="124" font-size="11">Register Write Latency (raw DMI write)</text>
<rect x="260" y="110" width="24.4" height="18" fill="#3b6fd6"/>
<text x="290.4" y="124">70.43 ms (PyDebug/UVM)</text>
<rect x="260" y="130" width="125.7" height="18" fill="#d67a3b"/>
<text x="391.7" y="144">363.15 ms (OpenOCD+RBB)</text>
<text x="10" y="184" font-size="11">GPR Read Latency (abstract command)</text>
<rect x="260" y="170" width="163.6" height="18" fill="#3b6fd6"/>
<text x="429.6" y="184">472.86 ms (PyDebug/UVM)</text>
<rect x="260" y="190" width="393.5" height="18" fill="#d67a3b"/>
<text x="659.5" y="204">1.137 s (OpenOCD+RBB)</text>
<text x="10" y="244" font-size="11">GPR Write Latency (abstract command)</text>
<rect x="260" y="230" width="139.8" height="18" fill="#3b6fd6"/>
<text x="405.8" y="244">403.93 ms (PyDebug/UVM)</text>
<rect x="260" y="250" width="334.5" height="18" fill="#d67a3b"/>
<text x="600.5" y="264">966.68 ms (OpenOCD+RBB)</text>
<text x="10" y="304" font-size="11">Memory Read Latency (SBA, 32-bit)</text>
<rect x="260" y="290" width="144.0" height="18" fill="#3b6fd6"/>
<text x="410.0" y="304">416.17 ms (PyDebug/UVM)</text>
<rect x="260" y="310" width="447.2" height="18" fill="#d67a3b"/>
<text x="713.2" y="324">1.292 s (OpenOCD+RBB)</text>
<text x="10" y="364" font-size="11">Memory Write Latency (SBA, 32-bit)</text>
<rect x="260" y="350" width="127.3" height="18" fill="#3b6fd6"/>
<text x="393.3" y="364">367.91 ms (PyDebug/UVM)</text>
<rect x="260" y="370" width="460.0" height="18" fill="#d67a3b"/>
<text x="726.0" y="384">1.329 s (OpenOCD+RBB)</text>
</svg>